<?xml version="1.0" encoding="utf-8" ?>
<svg xmlns="http://www.w3.org/2000/svg" xmlns:xlink="http://www.w3.org/1999/xlink" width="512" height="512">
	<path fill="#00AAB1" transform="scale(0.666667 0.666667)" d="M369.584 12.9134C380.535 12.2055 392.035 12.7373 402.995 13.2222C486.02 16.8956 563.705 50.4514 626.115 104.861C654.026 129.195 678.317 157.935 697.924 189.336C702.995 197.457 708.185 205.906 712.511 214.453C735.428 259.735 747.854 311.329 751.195 361.833C752.552 382.357 752.215 403.636 749.913 424.078C748.253 438.822 745.322 453.463 741.979 467.908C737.828 485.845 732.58 503.762 725.662 520.83C717.159 541.809 706.534 561.687 694.597 580.896C683.763 598.33 671.851 614.97 658.276 630.381C604.377 691.571 530.311 737.528 449.717 752.674C432.425 755.924 414.929 756.864 397.417 758.002L396.375 758.087C380.155 759.129 363.774 758.291 347.625 756.647C287.227 750.499 228.685 727.235 179.052 692.503C165.201 682.81 152.071 671.937 139.455 660.702C122.294 645.421 106.271 628.479 92.4532 610.098C85.3291 600.621 78.9355 590.607 72.6525 580.561C40.4427 529.059 19.8753 470.154 16.6534 409.237C15.1821 381.418 15.6267 353.016 19.6859 325.434C30.2014 253.983 64.0957 187.823 112.034 134.308C128.095 116.379 145.924 99.618 165.163 85.142C177.129 76.1379 189.81 68.2672 202.801 60.8432C238.01 40.7222 275.152 26.2009 315.081 18.6358C333.104 15.2212 351.305 13.9265 369.584 12.9134ZM322.914 717.888C325.384 720.691 327.777 723.352 330.828 725.554C340.96 732.867 355.696 735.826 367.921 736.591L384.296 737.238C383.648 732.178 383.623 727.351 383.612 722.256C382.665 721.777 381.562 721.862 380.511 721.812L373.125 721.494L336.34 718.773L322.914 717.888Z"/>
	<path fill="#CF9517" transform="scale(0.666667 0.666667)" d="M184.807 383.246C186.151 385.968 187.522 389.11 189.353 391.535C185.296 392.475 179.151 393.838 175.3 391.734C173.484 390.742 173.109 388.408 172.511 386.625C172.046 385.24 171.937 385.052 170.614 384.376L184.125 384.087L184.807 383.246Z"/>
	<path fill="#CF9517" transform="scale(0.666667 0.666667)" d="M603.841 214.481C609.141 214.32 615.215 213.582 620.408 214.579C623.334 222.249 622.985 230.616 624.079 238.651C622.144 240.619 620.413 242.427 618 243.804L617.522 244.088C615.477 245.259 612.928 245.583 610.689 246.297L610.432 247.544L610.026 247.187C609.85 244.701 609.168 242.029 608.817 239.54C607.995 233.718 607.391 227.941 606.032 222.202C605.437 219.693 604.467 217.3 603.906 214.786L603.841 214.481Z"/>
	<path fill="#5FEFFD" transform="scale(0.666667 0.666667)" d="M383.612 722.256L439.204 717.978C435.386 725.581 429.032 728.878 421.242 731.464C409.872 735.239 396.301 737.551 384.296 737.238C383.648 732.178 383.623 727.351 383.612 722.256Z"/>
	<path fill="#311B00" transform="scale(0.666667 0.666667)" d="M113.862 478.286C116.213 472.341 119.559 467.47 124.312 463.162C137.213 451.47 156.285 448.291 173.118 449.229C172.514 454.942 170.524 462.136 168.188 467.434C167.83 468.245 167.955 469.512 167.933 470.402C157.085 470.417 146.383 471.195 135.725 473.276C131.115 473.132 125.914 474.354 121.469 475.55L113.862 478.286Z"/>
	<path fill="#CF9517" transform="scale(0.666667 0.666667)" d="M579.031 215.081C582.604 215.373 586.565 214.877 590.136 214.617L601.033 214.098L603.841 214.481L603.906 214.786C604.467 217.3 605.437 219.693 606.032 222.202C607.391 227.941 607.995 233.718 608.817 239.54C609.168 242.029 609.85 244.701 610.026 247.187C609.238 247.956 609.359 248.928 609.221 249.987C608.919 252.303 608.582 257.561 606.862 259.124L606.631 259.373C606.843 264.262 607.108 269.171 606.711 274.057C606.52 276.405 605.952 278.7 605.653 281.04C605.655 279.998 605.75 278.804 605.541 277.783C605.166 275.947 605.169 273.967 604.884 272.092L604.601 271.935C604.675 270.109 604.767 268.379 603.509 266.877C602.672 265.876 601.797 265.743 600.56 265.596C596.729 265.141 593.14 265.107 589.293 265.223L588.343 256.779C588.399 252.777 587.815 248.656 587.368 244.679C587.223 247.039 586.564 248.977 586.465 251.36C585.53 247.253 585.434 242.639 584.859 238.422C583.764 230.391 581.749 222.711 579.031 215.081Z"/>
	<path fill="#BB6801" transform="scale(0.666667 0.666667)" d="M601.033 214.098L603.841 214.481L603.906 214.786C604.467 217.3 605.437 219.693 606.032 222.202C607.391 227.941 607.995 233.718 608.817 239.54C609.168 242.029 609.85 244.701 610.026 247.187C609.238 247.956 609.359 248.928 609.221 249.987C608.919 252.303 608.582 257.561 606.862 259.124L606.631 259.373C606.311 258.981 606.388 257.221 606.349 256.636L605.617 249.694L603.644 234.175C602.579 227.541 600.927 220.843 601.033 214.098Z"/>
	<path fill="#FFC949" transform="scale(0.666667 0.666667)" d="M587.368 244.679L587.438 243.516C592.275 242.64 598.362 242.968 603.317 242.996C604.205 250.681 604.437 258.479 604.718 266.206C604.776 267.788 605.25 270.642 604.884 272.092L604.601 271.935C604.675 270.109 604.767 268.379 603.509 266.877C602.672 265.876 601.797 265.743 600.56 265.596C596.729 265.141 593.14 265.107 589.293 265.223L588.343 256.779C588.399 252.777 587.815 248.656 587.368 244.679Z"/>
	<path transform="scale(0.666667 0.666667)" d="M575.36 453.071C595.409 448.748 618.538 446.002 636.731 457.854C642.227 461.434 646.731 466.155 650.547 471.467C651.603 472.937 653.033 474.877 653.432 476.665C653.704 477.886 653.601 479.266 653.557 480.511C646.128 475.297 637.607 474.625 628.825 473.959C610.329 470.465 589.797 468.29 572.459 477.198L575.36 453.071Z"/>
	<defs>
		<linearGradient id="gradient_0" gradientUnits="userSpaceOnUse" x1="127.814" y1="369.11801" x2="180.037" y2="270.83099">
			<stop offset="0" stop-color="#FFA702"/>
			<stop offset="1" stop-color="#FFC85A"/>
		</linearGradient>
	</defs>
	<path fill="url(#gradient_0)" transform="scale(0.666667 0.666667)" d="M143.451 252.69L145.626 239.687L146.062 240.587C150.289 241.584 154.859 242.054 158.962 243.364C158.197 247.651 157.56 251.778 157.402 256.143L157.59 291.645L161.102 337.5L163.088 358.875C163.617 364.839 163.973 370.776 165.016 376.688C165.454 379.172 165.921 382.426 167.409 384.499L152.383 383.574C151.616 379.322 151.415 374.912 151.026 370.607L148.992 349.549L143.629 295.102C142.637 280.948 142.05 266.83 143.451 252.69Z"/>
	<path fill="#FFC949" transform="scale(0.666667 0.666667)" d="M143.451 252.69L145.626 239.687L146.062 240.587C150.289 241.584 154.859 242.054 158.962 243.364C158.197 247.651 157.56 251.778 157.402 256.143L156.842 256.098C156.802 257.066 156.747 257.982 156.566 258.938C155.884 258.393 155.321 257.925 154.476 257.648C153.913 257.464 153.506 257.346 153.005 257.016C152.486 256.675 152.158 256.344 151.541 256.18L150.562 255.95L149.395 254.833L148.392 253.971L147.775 253.984L147.266 253.596L146.566 253.662C145.726 252.935 144.512 252.882 143.451 252.69Z"/>
	<defs>
		<linearGradient id="gradient_1" gradientUnits="userSpaceOnUse" x1="635.53998" y1="375.97198" x2="590.495" y2="252.306">
			<stop offset="0" stop-color="#D58000"/>
			<stop offset="1" stop-color="#FFC316"/>
		</linearGradient>
	</defs>
	<path fill="url(#gradient_1)" transform="scale(0.666667 0.666667)" d="M624.079 238.651C627.079 253.758 626.96 268.729 626.411 284.046C625.482 309.999 622.061 335.476 619.008 361.239C618.551 365.098 617.326 381.231 615.908 383.495C615.313 384.444 614.291 384.899 613.208 385.059C609.093 385.669 602.949 385.588 598.814 385.085C599.18 384.792 599.79 384.528 600.207 384.302C602.292 378.452 602.184 371.372 602.548 365.203L603.83 335.062L605.653 281.04C605.952 278.7 606.52 276.405 606.711 274.057C607.108 269.171 606.843 264.262 606.631 259.373L606.862 259.124C608.582 257.561 608.919 252.303 609.221 249.987C609.359 248.928 609.238 247.956 610.026 247.187L610.432 247.544L610.689 246.297C612.928 245.583 615.477 245.259 617.522 244.088L618 243.804C620.413 242.427 622.144 240.619 624.079 238.651Z"/>
	<path fill="#975713" transform="scale(0.666667 0.666667)" d="M606.631 259.373L606.862 259.124C608.582 257.561 608.919 252.303 609.221 249.987C609.359 248.928 609.238 247.956 610.026 247.187L610.432 247.544L610.947 267.283L611.224 279.074L608.545 326.137L606.199 359.343C605.709 364.393 605.387 369.458 604.463 374.456C603.945 377.262 603.083 381.564 601.072 383.604C600.661 384.02 600.627 384.018 600.207 384.302C602.292 378.452 602.184 371.372 602.548 365.203L603.83 335.062L605.653 281.04C605.952 278.7 606.52 276.405 606.711 274.057C607.108 269.171 606.843 264.262 606.631 259.373Z"/>
	<path fill="#CF9517" transform="scale(0.666667 0.666667)" d="M113.862 478.286L121.469 475.55C125.914 474.354 131.115 473.132 135.725 473.276C133.29 475.165 130.58 476.619 128.199 478.586C117.38 487.527 106.066 501.193 104.372 515.578C104.068 518.155 103.658 520.833 103.713 523.429C104.036 538.615 111.5 553.017 120.843 564.639C127.103 572.426 134.793 579.05 142.746 585.038C164.117 601.129 190.25 613.796 216.073 620.851C222.938 622.727 229.968 624.196 236.975 625.45C240.513 626.083 244.114 626.379 247.611 627.258L255.75 629.203C251.098 632.84 249.152 636.956 248.45 642.756L247.968 646.919L199.962 634.138C170.945 625.125 143.078 610.332 121.284 588.929C104.699 572.642 92.0314 550.226 91.9879 526.5C91.9625 512.636 96.043 498.448 104.865 487.597C107.559 484.283 110.856 481.318 113.862 478.286Z"/>
	<defs>
		<linearGradient id="gradient_2" gradientUnits="userSpaceOnUse" x1="186.864" y1="299.50101" x2="163.366" y2="298.62299">
			<stop offset="0" stop-color="#FFA704"/>
			<stop offset="1" stop-color="#FFC94B"/>
		</linearGradient>
	</defs>
	<path fill="url(#gradient_2)" transform="scale(0.666667 0.666667)" d="M156.999 214.437L175.767 214.358L175.779 214.376L190.531 214.655C187.758 222.017 185.764 229.317 184.666 237.125C182.6 251.819 182.507 266.925 182.131 281.745L180.998 315.941C180.647 331.333 179.238 346.977 180.504 362.354C181.093 369.509 182.681 376.402 184.807 383.246L184.125 384.087L170.614 384.376L167.409 384.499C165.921 382.426 165.454 379.172 165.016 376.688C163.973 370.776 163.617 364.839 163.088 358.875L161.102 337.5L157.59 291.645L157.402 256.143C157.56 251.778 158.197 247.651 158.962 243.364C154.859 242.054 150.289 241.584 146.062 240.587L145.626 239.687L149.894 214.489L156.999 214.437Z"/>
	<path fill="#FFDD9A" transform="scale(0.666667 0.666667)" d="M165.027 241.891L180.048 242.608L177.146 285.298C176.822 289.795 177.25 294.857 176.307 299.256C175.947 300.937 176.105 302.619 175.684 304.312C175.487 299.298 175.497 293.451 176.297 288.521C174.472 286.495 171.321 284.594 168.506 284.527L165.188 284.575C163.566 282.874 163.936 280.718 163.917 278.526C163.878 273.992 164.323 269.07 163.815 264.586L165.027 241.891Z"/>
	<path fill="#CF9517" transform="scale(0.666667 0.666667)" d="M156.999 214.437L175.767 214.358L175.779 214.376L169.575 214.412C169.078 223.611 166.147 232.699 165.027 241.891L163.815 264.586C163.327 270.809 163.668 277.079 163.603 283.312C163.36 306.646 165.071 330.224 167.428 353.438L169.575 371.372L170.208 379.84C170.284 381.233 170.054 383.115 170.614 384.376L167.409 384.499C165.921 382.426 165.454 379.172 165.016 376.688C163.973 370.776 163.617 364.839 163.088 358.875L161.102 337.5L157.59 291.645L157.402 256.143C157.56 251.778 158.197 247.651 158.962 243.364C154.859 242.054 150.289 241.584 146.062 240.587L145.626 239.687L149.894 214.489L156.999 214.437Z"/>
	<path fill="#FFB214" transform="scale(0.666667 0.666667)" d="M145.626 239.687L149.894 214.489L156.999 214.437L166.213 214.553C163.664 221.637 162.272 229.257 160.705 236.6C160.22 238.872 159.389 241.105 158.962 243.364C154.859 242.054 150.289 241.584 146.062 240.587L145.626 239.687Z"/>
	<path fill="#FFDD9A" transform="scale(0.666667 0.666667)" d="M173.118 449.229C176.8 449.565 180.41 449.941 184.03 450.733C186.998 451.382 190.218 452.549 193.232 452.77L196.125 477.001L197.319 487.092L201.27 505.117L214.541 543.045C218.564 552.329 223.094 561.407 228.562 569.933L241.697 589.035L251.597 600.045L249.512 601.046C245.522 601.088 240.007 600.474 236.234 601.616C237.507 602.406 237.974 604.992 238.703 606.351C241.793 612.117 246.127 617.41 247.646 623.917C247.876 624.899 247.977 625.882 248.009 626.887L247.611 627.258C244.114 626.379 240.513 626.083 236.975 625.45C229.968 624.196 222.938 622.727 216.073 620.851C190.25 613.796 164.117 601.129 142.746 585.038C134.793 579.05 127.103 572.426 120.843 564.639C111.5 553.017 104.036 538.615 103.713 523.429C103.658 520.833 104.068 518.155 104.372 515.578C106.066 501.193 117.38 487.527 128.199 478.586C130.58 476.619 133.29 475.165 135.725 473.276C146.383 471.195 157.085 470.417 167.933 470.402C167.955 469.512 167.83 468.245 168.188 467.434C170.524 462.136 172.514 454.942 173.118 449.229Z"/>
	<path transform="scale(0.666667 0.666667)" d="M173.118 449.229C176.8 449.565 180.41 449.941 184.03 450.733C186.998 451.382 190.218 452.549 193.232 452.77L196.125 477.001C192.789 476.396 189.356 474.551 186.045 473.603C180.096 471.9 174.049 471.174 167.933 470.402C167.955 469.512 167.83 468.245 168.188 467.434C170.524 462.136 172.514 454.942 173.118 449.229Z"/>
	<path fill="#CF9517" transform="scale(0.666667 0.666667)" d="M236.234 601.616C234.046 601.535 231.835 601.158 229.688 600.744C218.919 598.666 208.387 594.697 198.269 590.558C182.829 584.242 168.806 576.957 154.946 567.611C143.235 559.715 132.339 550.913 124.474 539.008C119.528 531.519 117.257 523.154 119.161 514.23C121.232 504.522 128.414 497.057 136.507 491.79C154.78 479.899 177.194 482.781 197.319 487.092L201.27 505.117C186.152 498.093 169.727 494.491 153.525 500.49C146.332 503.154 139.731 507.344 136.384 514.541C134.426 518.751 133.795 523.067 135.389 527.499C138.114 535.075 144.603 541.387 150.453 546.697C163.224 558.289 177.227 567.714 193.015 574.725C199.447 577.582 206.083 580.287 212.848 582.257L226.383 585.49C231.445 586.711 236.577 588.118 241.697 589.035L251.597 600.045L249.512 601.046C245.522 601.088 240.007 600.474 236.234 601.616Z"/>
	<path fill="#00AAB1" transform="scale(0.666667 0.666667)" d="M241.697 589.035C236.577 588.118 231.445 586.711 226.383 585.49L212.848 582.257C206.083 580.287 199.447 577.582 193.015 574.725C177.227 567.714 163.224 558.289 150.453 546.697C144.603 541.387 138.114 535.075 135.389 527.499C133.795 523.067 134.426 518.751 136.384 514.541C139.731 507.344 146.332 503.154 153.525 500.49C169.727 494.491 186.152 498.093 201.27 505.117L214.541 543.045C218.564 552.329 223.094 561.407 228.562 569.933L241.697 589.035Z"/>
	<path fill="#CF9517" transform="scale(0.666667 0.666667)" d="M572.459 477.198C589.797 468.29 610.329 470.465 628.825 473.959C637.607 474.625 646.128 475.297 653.557 480.511L653.803 480.885C656.617 485.048 660.488 488.407 663.281 492.59C672.263 506.039 674.275 524.634 671.364 540.235C665.987 569.052 641.809 592.784 618.464 608.654C588.595 628.959 553.973 638.721 518.874 645.216C517.815 639.844 515.737 633.807 511.823 629.812C510.66 628.625 509.072 627.725 507.438 627.395C504.621 626.826 501.333 627.103 498.466 627.101L481.85 627.186C487.056 621.874 493.65 618.126 499.361 613.386C508.012 606.207 515.517 598.281 523.223 590.133C525.436 586.515 528.177 583.139 530.572 579.628L542.545 560.647C547.512 552.154 552.036 543.237 555.775 534.135L566.841 503.895L570.646 487.221L572.459 477.198Z"/>
	<path fill="#FFC949" transform="scale(0.666667 0.666667)" d="M572.459 477.198C589.797 468.29 610.329 470.465 628.825 473.959L629.057 474.242C630.283 475.691 631.792 476.235 633.354 477.236C635.461 478.585 637.49 480.027 639.365 481.688C652.55 493.364 660.674 509.957 659.394 527.787C657.907 548.5 644.206 567.814 628.829 580.927C613.198 594.257 594.051 605.396 574.849 612.69C563.862 616.863 552.551 619.852 541.125 622.551L525.406 625.614C523.686 625.866 521.599 626.387 519.868 626.236L519.375 626.184C519.051 625.534 519.064 625.397 518.437 624.97L518.21 625.221C516.608 626.925 515.279 627.105 513 627.23L512.334 626.812L524.947 602.762C528.331 602.004 532.1 602.013 535.563 601.557C540.242 600.94 544.997 599.835 549.574 598.688C574.297 592.489 596.713 582.14 616.799 566.391C625.031 559.937 632.88 552.668 638.616 543.844C640.675 540.676 642.372 537.225 643.511 533.625L643.693 533.066C646.413 524.409 645.547 513.876 641.175 505.897C638.447 500.917 634.51 496.946 629.952 493.635C617.127 484.315 599.074 481.37 583.688 483.954L570.646 487.221L572.459 477.198Z"/>
	<path fill="#00AAB1" transform="scale(0.666667 0.666667)" d="M566.841 503.895L567.455 503.732L579.228 499.982C591.979 496.579 605.467 497.245 617.099 503.835C622.801 507.065 627.169 511.957 628.965 518.344C630.734 524.639 629.279 530.731 626.019 536.25C612.093 559.825 569.736 580.296 543.586 586.722L523.223 590.133C525.436 586.515 528.177 583.139 530.572 579.628L542.545 560.647C547.512 552.154 552.036 543.237 555.775 534.135L566.841 503.895Z"/>
	<path transform="scale(0.666667 0.666667)" d="M481.85 627.186L498.466 627.101C501.333 627.103 504.621 626.826 507.438 627.395C509.072 627.725 510.66 628.625 511.823 629.812C515.737 633.807 517.815 639.844 518.874 645.216L520.925 664.916C521.604 670.877 522.946 678.034 522.05 683.932C521.558 687.17 520.303 689.814 518.213 692.329C511.043 700.952 497.371 704.252 487.097 707.457C477.48 710.457 467.787 713.226 457.875 715.078L445.046 717.126C443.353 717.361 440.736 717.374 439.204 717.978L383.612 722.256C382.665 721.777 381.562 721.862 380.511 721.812L373.125 721.494L336.34 718.773L322.914 717.888C317.371 715.941 311.354 715.522 305.621 714.348C293.073 711.778 280.84 708.659 268.917 703.934C263.68 701.859 258.525 699.714 253.771 696.654C250.391 694.479 245.238 690.332 244.489 686.153L244.421 685.688C243.649 680.718 244.939 675.27 245.458 670.289L247.968 646.919L248.45 642.756C249.152 636.956 251.098 632.84 255.75 629.203L256.454 629.137C265.551 627.434 275.869 627.59 285.108 628.053L285.539 628.29C288.522 630.001 290.934 632.445 293.625 634.555C296.711 636.973 300.251 639.136 303.645 641.115C315.779 648.19 329.643 652.342 343.285 655.386C354.71 657.936 365.752 659.749 377.465 660.128C381.685 660.978 386.916 660.162 391.233 659.889C413.399 658.486 436.575 654.75 456.477 644.394C461.763 641.644 466.833 638.474 471.632 634.941C475.087 632.397 478.263 629.56 481.85 627.186Z"/>
	<path fill="#5FEFFD" transform="scale(0.666667 0.666667)" d="M512.348 424.512L533.812 419.842L534.466 420.171C537.097 421.41 540.832 421.7 543.702 422.616C554.473 426.056 569.281 432.895 573.693 444.188C574.809 447.043 575.035 450.052 575.36 453.071L572.459 477.198L570.646 487.221L566.841 503.895L555.775 534.135C552.036 543.237 547.512 552.154 542.545 560.647L530.572 579.628C528.177 583.139 525.436 586.515 523.223 590.133C515.517 598.281 508.012 606.207 499.361 613.386C493.65 618.126 487.056 621.874 481.85 627.186C478.263 629.56 475.087 632.397 471.632 634.941C466.833 638.474 461.763 641.644 456.477 644.394C436.575 654.75 413.399 658.486 391.233 659.889C386.916 660.162 381.685 660.978 377.465 660.128C378.907 660.097 380.413 660.37 381.562 659.468L383.526 652.103L403.38 618.811C407.528 612.084 410.981 604.951 414.478 597.878C420.46 585.778 426.305 573.09 430.312 560.189C433.342 550.435 435.252 540.517 436.772 530.432C438.377 519.783 439.173 508.365 437.898 497.625C437.344 492.954 435.799 488.455 434.721 483.891C464.462 482.537 494.4 479.608 523.321 472.33C532.588 469.999 542.227 467.325 550.989 463.478C555.291 461.59 561.734 458.62 563.384 453.799C564.016 451.952 563.86 449.636 562.9 447.938C557.33 438.077 536.201 432.763 525.744 430.44C522.163 429.645 518.411 429.178 514.884 428.217L514.22 428.029L513.356 427.262L512.625 427.237C512.033 426.443 512.311 425.485 512.348 424.512Z"/>
	<path fill="#EFEAEA" transform="scale(0.666667 0.666667)" d="M233.501 419.82C239.754 421.749 245.973 423.534 252.428 424.678C256.154 425.338 261.061 425.299 264.597 426.453C248.549 429.259 216.971 432.626 207.019 446.554C205.186 449.119 203.971 451.023 204.557 454.202C205.082 457.047 206.693 459.177 208.97 460.914C219.286 466.41 230.195 469.431 241.498 472.217C277.457 481.08 313.971 483.193 350.799 484.92L434.721 483.891C435.799 488.455 437.344 492.954 437.898 497.625C439.173 508.365 438.377 519.783 436.772 530.432C435.252 540.517 433.342 550.435 430.312 560.189C426.305 573.09 420.46 585.778 414.478 597.878C410.981 604.951 407.528 612.084 403.38 618.811L383.526 652.103L381.562 659.468C380.413 660.37 378.907 660.097 377.465 660.128C365.752 659.749 354.71 657.936 343.285 655.386C329.643 652.342 315.779 648.19 303.645 641.115C300.251 639.136 296.711 636.973 293.625 634.555C290.934 632.445 288.522 630.001 285.539 628.29L285.108 628.053C275.869 627.59 265.551 627.434 256.454 629.137L255.75 629.203L247.611 627.258L248.009 626.887C247.977 625.882 247.876 624.899 247.646 623.917C246.127 617.41 241.793 612.117 238.703 606.351C237.974 604.992 237.507 602.406 236.234 601.616C240.007 600.474 245.522 601.088 249.512 601.046L251.597 600.045L241.697 589.035L228.562 569.933C223.094 561.407 218.564 552.329 214.541 543.045L201.27 505.117L197.319 487.092L196.125 477.001L193.232 452.77C193.211 449.587 193.463 446.757 194.825 443.844C200.001 432.779 213.316 426.552 224.232 422.741C227.057 421.755 230.03 421.133 232.82 420.082L233.501 419.82Z"/>
	<defs>
		<linearGradient id="gradient_3" gradientUnits="userSpaceOnUse" x1="276.22699" y1="442.48001" x2="198.709" y2="526.60303">
			<stop offset="0" stop-color="#79E0ED"/>
			<stop offset="1" stop-color="#D4F4F8"/>
		</linearGradient>
	</defs>
	<path fill="url(#gradient_3)" transform="scale(0.666667 0.666667)" d="M233.501 419.82C239.754 421.749 245.973 423.534 252.428 424.678C256.154 425.338 261.061 425.299 264.597 426.453C248.549 429.259 216.971 432.626 207.019 446.554C205.186 449.119 203.971 451.023 204.557 454.202C205.082 457.047 206.693 459.177 208.97 460.914C207.585 465.325 209.845 472.468 210.711 477.011C215.634 502.847 222.602 528.348 234.891 551.74L243.682 566.544L242.965 566.867C241.536 566.154 240.805 565.06 240.046 563.683L239.753 563.134C238.819 563.063 238.722 562.757 238.125 562.125C237.204 561.15 236.398 560.886 235.396 560.115C233.141 558.382 228.838 554.26 227.304 551.926C226.952 551.39 226.91 551.078 226.315 550.737C225.344 550.181 223.288 548.538 222.603 547.672C222.055 546.978 222.202 547.134 221.422 546.969C221.002 546.275 220.558 545.375 219.886 544.903C219.219 544.435 219.042 544.456 218.628 543.68C218.314 543.088 218.211 542.868 217.777 542.405L217.272 541.869C216.681 541.166 216.496 540.896 215.639 540.464L214.541 543.045L201.27 505.117L197.319 487.092L196.125 477.001L193.232 452.77C193.211 449.587 193.463 446.757 194.825 443.844C200.001 432.779 213.316 426.552 224.232 422.741C227.057 421.755 230.03 421.133 232.82 420.082L233.501 419.82Z"/>
	<defs>
		<linearGradient id="gradient_4" gradientUnits="userSpaceOnUse" x1="311.625" y1="585.05798" x2="276.20401" y2="622.29303">
			<stop offset="0" stop-color="#B9EFF4"/>
			<stop offset="1" stop-color="#E1F7FA"/>
		</linearGradient>
	</defs>
	<path fill="url(#gradient_4)" transform="scale(0.666667 0.666667)" d="M214.541 543.045L215.639 540.464C216.496 540.896 216.681 541.166 217.272 541.869L217.777 542.405C218.211 542.868 218.314 543.088 218.628 543.68C219.042 544.456 219.219 544.435 219.886 544.903C220.558 545.375 221.002 546.275 221.422 546.969C222.202 547.134 222.055 546.978 222.603 547.672C223.288 548.538 225.344 550.181 226.315 550.737C226.91 551.078 226.952 551.39 227.304 551.926C228.838 554.26 233.141 558.382 235.396 560.115C236.398 560.886 237.204 561.15 238.125 562.125C238.722 562.757 238.819 563.063 239.753 563.134L240.046 563.683C240.805 565.06 241.536 566.154 242.965 566.867L243.682 566.544L254.785 580.836C262.071 589.307 270.143 597.174 278.398 604.693C283.459 609.303 288.591 613.997 294.036 618.144C301.199 623.599 308.926 628.4 316.547 633.188C323.539 637.58 330.592 642.501 338.321 645.506C343.222 647.412 348.473 648.46 353.695 648.994L367.312 649.898C370.358 650.062 373.467 650.382 376.514 650.206C378.814 651.391 381.236 651.206 383.526 652.103L381.562 659.468C380.413 660.37 378.907 660.097 377.465 660.128C365.752 659.749 354.71 657.936 343.285 655.386C329.643 652.342 315.779 648.19 303.645 641.115C300.251 639.136 296.711 636.973 293.625 634.555C290.934 632.445 288.522 630.001 285.539 628.29L285.108 628.053C275.869 627.59 265.551 627.434 256.454 629.137L255.75 629.203L247.611 627.258L248.009 626.887C247.977 625.882 247.876 624.899 247.646 623.917C246.127 617.41 241.793 612.117 238.703 606.351C237.974 604.992 237.507 602.406 236.234 601.616C240.007 600.474 245.522 601.088 249.512 601.046L251.597 600.045L241.697 589.035L228.562 569.933C223.094 561.407 218.564 552.329 214.541 543.045Z"/>
	<path fill="#FFB214" transform="scale(0.666667 0.666667)" d="M251.597 600.045L273.654 618.113L280.715 623.933C282.212 625.17 284.042 626.411 285.108 628.053C275.869 627.59 265.551 627.434 256.454 629.137L255.75 629.203L247.611 627.258L248.009 626.887C247.977 625.882 247.876 624.899 247.646 623.917C246.127 617.41 241.793 612.117 238.703 606.351C237.974 604.992 237.507 602.406 236.234 601.616C240.007 600.474 245.522 601.088 249.512 601.046L251.597 600.045Z"/>
	<path fill="#FFC949" transform="scale(0.666667 0.666667)" d="M236.234 601.616C240.007 600.474 245.522 601.088 249.512 601.046L249.224 601.217C247.198 602.309 244.525 602.056 242.279 602.101C246.713 607.982 249.965 614.07 253.161 620.664C254.466 623.355 256.107 626.131 256.454 629.137L255.75 629.203L247.611 627.258L248.009 626.887C247.977 625.882 247.876 624.899 247.646 623.917C246.127 617.41 241.793 612.117 238.703 606.351C237.974 604.992 237.507 602.406 236.234 601.616Z"/>
	<path fill="#9EE0E6" transform="scale(0.666667 0.666667)" d="M350.799 484.92L434.721 483.891C435.799 488.455 437.344 492.954 437.898 497.625C439.173 508.365 438.377 519.783 436.772 530.432C435.252 540.517 433.342 550.435 430.312 560.189C426.305 573.09 420.46 585.778 414.478 597.878C410.981 604.951 407.528 612.084 403.38 618.811L383.526 652.103C381.236 651.206 378.814 651.391 376.514 650.206C370.892 641.819 367.033 632.066 363.224 622.751C347.928 585.349 338.36 540.461 349.714 500.711C351.232 495.395 353.501 490.49 355.635 485.411L350.799 484.92Z"/>
	<path transform="scale(0.666667 0.666667)" d="M190.531 214.655C196.305 203.174 202.9 192.386 211.071 182.438C232.754 156.038 264.248 136.051 296.558 125.328C338.644 111.361 383.985 108.926 427.736 115.254C437.324 116.641 446.964 118.134 456.334 120.64C472.044 124.844 487.146 131.016 501.664 138.316C534.95 155.055 562.819 181.308 579.031 215.081C581.749 222.711 583.764 230.391 584.859 238.422C585.434 242.639 585.53 247.253 586.465 251.36C586.564 248.977 587.223 247.039 587.368 244.679C587.815 248.656 588.399 252.777 588.343 256.779L589.293 265.223C593.14 265.107 596.729 265.141 600.56 265.596C601.797 265.743 602.672 265.876 603.509 266.877C604.767 268.379 604.675 270.109 604.601 271.935L604.884 272.092C605.169 273.967 605.166 275.947 605.541 277.783C605.75 278.804 605.655 279.998 605.653 281.04L603.83 335.062L602.548 365.203C602.184 371.372 602.292 378.452 600.207 384.302C599.79 384.528 599.18 384.792 598.814 385.085L598.443 385.442C597.718 386.185 597.426 387.339 597.009 388.28C596.625 389.146 595.017 391.892 594.213 392.155C593.226 392.48 591.495 392.473 590.438 392.517C587.021 392.658 583.85 392.063 580.575 391.168C571.137 401.892 560.26 409.769 546.938 415.094C542.724 416.779 537.78 417.747 533.812 419.842L512.348 424.512C512.311 425.485 512.033 426.443 512.625 427.237L513.356 427.262L514.22 428.029L514.884 428.217C518.411 429.178 522.163 429.645 525.744 430.44C536.201 432.763 557.33 438.077 562.9 447.938C563.86 449.636 564.016 451.952 563.384 453.799C561.734 458.62 555.291 461.59 550.989 463.478C542.227 467.325 532.588 469.999 523.321 472.33C494.4 479.608 464.462 482.537 434.721 483.891L350.799 484.92C313.971 483.193 277.457 481.08 241.498 472.217C230.195 469.431 219.286 466.41 208.97 460.914C206.693 459.177 205.082 457.047 204.557 454.202C203.971 451.023 205.186 449.119 207.019 446.554C216.971 432.626 248.549 429.259 264.597 426.453C261.061 425.299 256.154 425.338 252.428 424.678C245.973 423.534 239.754 421.749 233.501 419.82L218.625 413.531C207.054 408.221 197.961 400.753 189.353 391.535C187.522 389.11 186.151 385.968 184.807 383.246C182.681 376.402 181.093 369.509 180.504 362.354C179.238 346.977 180.647 331.333 180.998 315.941L182.131 281.745C182.507 266.925 182.6 251.819 184.666 237.125C185.764 229.317 187.758 222.017 190.531 214.655Z"/>
	<path fill="#9EE0E6" transform="scale(0.666667 0.666667)" d="M514.22 428.029L503.735 426.461L512.348 424.512C512.311 425.485 512.033 426.443 512.625 427.237L513.356 427.262L514.22 428.029Z"/>
	<path fill="#FFB214" transform="scale(0.666667 0.666667)" d="M587.368 244.679C587.815 248.656 588.399 252.777 588.343 256.779L587.953 256.447L587.906 255.561L587.475 258.469L587.214 264.168C586.317 260.332 586.658 255.333 586.465 251.36C586.564 248.977 587.223 247.039 587.368 244.679Z"/>
	<defs>
		<linearGradient id="gradient_5" gradientUnits="userSpaceOnUse" x1="612.59497" y1="384.21301" x2="568.22601" y2="262.44299">
			<stop offset="0" stop-color="#D58000"/>
			<stop offset="1" stop-color="#FEC216"/>
		</linearGradient>
	</defs>
	<path fill="url(#gradient_5)" transform="scale(0.666667 0.666667)" d="M587.214 264.168L587.475 258.469L587.906 255.561L587.953 256.447L588.343 256.779L589.293 265.223C593.14 265.107 596.729 265.141 600.56 265.596C601.797 265.743 602.672 265.876 603.509 266.877C604.767 268.379 604.675 270.109 604.601 271.935L604.884 272.092C605.169 273.967 605.166 275.947 605.541 277.783C605.75 278.804 605.655 279.998 605.653 281.04L603.83 335.062L602.548 365.203C602.184 371.372 602.292 378.452 600.207 384.302C599.79 384.528 599.18 384.792 598.814 385.085L598.443 385.442C597.718 386.185 597.426 387.339 597.009 388.28C596.625 389.146 595.017 391.892 594.213 392.155C593.226 392.48 591.495 392.473 590.438 392.517C587.021 392.658 583.85 392.063 580.575 391.168C583.293 387.527 585.124 382.521 586.373 378.202C590.773 362.985 590.315 346.919 589.98 331.261L588.926 300.243L588.565 285.042L587.214 264.168Z"/>
	<path fill="#FFB214" transform="scale(0.666667 0.666667)" d="M383.184 191.674C386.768 191.505 390.354 191.881 393.938 191.985L408.562 192.301L508.091 199.808C519.887 201.269 532.26 202.289 543.748 205.414C550.364 207.213 556.9 209.925 562.052 214.557C575.959 227.06 577.323 247.632 578.157 265.082L580.715 324.183L581.473 345.573C581.559 350.557 581.729 355.443 580.703 360.353C579.177 367.65 575.523 373.984 570.498 379.453C556.45 394.738 535.13 403.701 515.616 409.668C483.806 419.395 450.599 423.685 417.419 424.876L384.309 425.976L384.47 408.259L384.818 408.158L385.2 398.304L413.637 397.957C425.628 397.468 437.708 395.961 449.625 394.562C475.972 391.468 503.822 387.872 526.966 373.797C536.878 367.768 547.316 357.491 550.568 346.125C551.235 343.793 550.927 340.961 550.939 338.54L550.962 327C550.541 317.851 549.054 308.576 548.285 299.438L546.087 273.562C545.581 266.87 545.604 259.392 543.799 252.938C542.272 247.476 538.777 242.912 533.781 240.203L533.25 239.919C529.623 237.936 525.625 236.731 521.739 235.365C514.795 232.925 507.536 231.223 500.346 229.656C475.727 224.292 450.971 220.877 425.843 219.138C422.712 218.922 419.562 219.174 416.438 218.965C414.036 218.804 411.708 218.293 409.29 218.203L384.051 218.07C384.351 212.472 383.959 206.962 383.727 201.375C383.592 198.126 383.744 194.892 383.184 191.674Z"/>
	<path fill="#FFDD9A" transform="scale(0.666667 0.666667)" d="M384.309 425.976L359.753 424.279L321 421.5C313.232 420.954 305.253 420.757 297.539 419.746C282.797 417.815 268.044 413.802 253.865 409.395C241.215 405.463 228.749 401.331 217.125 394.847C211.216 391.551 205.815 387.588 200.945 382.889C192.934 375.161 186.566 364.735 186.775 353.245L187.347 343.691L189.214 305.23L191.098 264.562C191.578 255.943 191.668 246.91 193.803 238.503C195.894 230.271 200.256 221.871 206.283 215.824C209.001 213.097 212.192 210.805 215.739 209.287C226.548 204.661 239.326 203.139 250.886 201.316C294.746 194.399 338.831 191.858 383.184 191.674C383.744 194.892 383.592 198.126 383.727 201.375C383.959 206.962 384.351 212.472 384.051 218.07C353.242 218.137 322.412 219.943 292.069 225.612L264.957 231.79C254.979 234.171 241.106 236.226 233.651 243.832C230.989 246.547 229.478 249.686 228.631 253.35C227.429 258.549 227.234 263.983 226.829 269.289L224.989 294.188L222.455 324.165C221.896 330.858 221.115 337.765 221.369 344.484C221.695 353.113 225.332 359.433 231.613 365.185C238.06 371.09 245.812 374.941 253.797 378.335C280.259 389.584 308.378 392.702 336.697 395.658L368.834 398.117C374.085 398.355 379.241 398.75 384.509 398.582L384.47 408.259L384.309 425.976Z"/>
	<path fill="#CF9517" transform="scale(0.666667 0.666667)" d="M384.051 218.07L409.29 218.203C411.708 218.293 414.036 218.804 416.438 218.965C419.562 219.174 422.712 218.922 425.843 219.138C450.971 220.877 475.727 224.292 500.346 229.656C507.536 231.223 514.795 232.925 521.739 235.365C525.625 236.731 529.623 237.936 533.25 239.919L533.781 240.203C538.777 242.912 542.272 247.476 543.799 252.938C545.604 259.392 545.581 266.87 546.087 273.562L548.285 299.438C549.054 308.576 550.541 317.851 550.962 327L550.939 338.54C550.927 340.961 551.235 343.793 550.568 346.125C547.316 357.491 536.878 367.768 526.966 373.797C503.822 387.872 475.972 391.468 449.625 394.562C437.708 395.961 425.628 397.468 413.637 397.957L385.2 398.304L384.818 408.158L384.47 408.259L384.509 398.582C379.241 398.75 374.085 398.355 368.834 398.117L336.697 395.658C308.378 392.702 280.259 389.584 253.797 378.335C245.812 374.941 238.06 371.09 231.613 365.185C225.332 359.433 221.695 353.113 221.369 344.484C221.115 337.765 221.896 330.858 222.455 324.165L224.989 294.188L226.829 269.289C227.234 263.983 227.429 258.549 228.631 253.35C229.478 249.686 230.989 246.547 233.651 243.832C241.106 236.226 254.979 234.171 264.957 231.79L292.069 225.612C322.412 219.943 353.242 218.137 384.051 218.07Z"/>
	<path fill="#FFDD9A" transform="scale(0.666667 0.666667)" d="M321.962 345.688C323.702 347.734 326.323 349.613 328.654 350.956L328.954 351.123C324.225 356.15 319.838 359.911 313.377 362.587C301.939 367.323 288.187 367.498 276.75 362.701C266.942 358.587 257.085 350.952 253.022 340.848C252.049 338.43 251.286 334.962 252.444 332.466L252.646 332.062C253.894 329.412 256.087 327.855 258.551 326.422C258.876 327.618 259.103 329.312 259.651 330.39C263.813 340.824 269.035 348.397 279.652 353.031C288.768 357.01 301.053 356.847 310.246 353.122C314.555 351.375 318.485 348.752 321.962 345.688Z"/>
	<path fill="#975713" transform="scale(0.666667 0.666667)" d="M258.551 326.422C258.903 324.575 257.793 320.821 257.55 318.78C257.021 314.343 256.854 309.135 257.71 304.752C259.273 296.75 263.996 290.188 270.68 285.654C278.36 280.445 290.263 277.061 299.511 278.778C299.205 278.914 298.842 278.964 298.592 279.188C297.47 280.192 295.974 283.839 295.132 285.313L287.549 298.526C286.507 300.341 285.026 302.302 284.239 304.222L284.141 304.5L284.581 305.018C280.864 305.483 277.822 306.479 275.357 309.452C273.24 312.005 272.9 315.618 272.998 318.802C269.044 323.429 265.431 327.987 259.651 330.39C259.103 329.312 258.876 327.618 258.551 326.422Z"/>
	<path transform="scale(0.666667 0.666667)" d="M417.185 333.082C420.994 332.933 426.336 332.308 429.464 334.854L429.371 335.438C424.847 337.906 423.501 341.331 420.648 345.324C414.536 353.879 407.533 358.87 397.125 360.836C394.413 361.348 391.742 361.591 388.983 361.697C374.842 362.243 362.58 360.399 351.866 350.512C350.179 348.568 348.719 346.627 347.509 344.346C347.25 343.857 345.983 340.944 345.67 340.767C344.211 339.941 342.06 340.23 340.328 339.187C339.586 337.884 339.799 336.716 339.802 335.25C340.617 334.213 341.051 333.761 342.375 333.466C344.328 333.031 346.737 333.247 348.719 333.323C353.947 333.524 356.032 334.361 358.125 339.293C358.791 340.864 359.406 342.011 360.938 342.89C367.1 346.429 399.61 346.195 405.842 343.113C410.74 340.691 411.488 334.693 416.751 333.199L417.185 333.082Z"/>
	<path transform="scale(0.666667 0.666667)" d="M299.511 278.778C311.412 281.828 321.265 286.668 327.788 297.562C333.325 306.809 334.196 318.839 331.46 329.119C329.741 335.573 326.337 340.748 321.962 345.688C318.485 348.752 314.555 351.375 310.246 353.122C301.053 356.847 288.768 357.01 279.652 353.031C269.035 348.397 263.813 340.824 259.651 330.39C265.431 327.987 269.044 323.429 272.998 318.802C272.9 315.618 273.24 312.005 275.357 309.452C277.822 306.479 280.864 305.483 284.581 305.018L284.141 304.5L284.239 304.222C285.026 302.302 286.507 300.341 287.549 298.526L295.132 285.313C295.974 283.839 297.47 280.192 298.592 279.188C298.842 278.964 299.205 278.914 299.511 278.778Z"/>
	<path fill="#EFEAEA" transform="scale(0.666667 0.666667)" d="M272.998 318.802C272.9 315.618 273.24 312.005 275.357 309.452C277.822 306.479 280.864 305.483 284.581 305.018C288.877 305.715 291.807 306.941 294.398 310.655C296.125 313.131 296.691 315.97 296.05 318.921C295.33 322.233 293.362 325.139 290.453 326.892C287.993 328.374 285.017 328.973 282.196 328.283C279.109 327.527 276.002 325.45 274.436 322.628C273.787 321.458 273.329 320.095 272.998 318.802Z"/>
	<path transform="scale(0.666667 0.666667)" d="M475.026 279.536C483.676 278.821 493.318 282.432 500.082 287.67C507.839 293.677 513.236 302.95 514.341 312.729C515.46 322.633 511.905 334.105 505.605 341.771C498.776 350.08 489.971 354.465 479.344 355.513C469.344 356.45 459.379 353.202 451.538 347.024C443.902 341.007 439.672 331.371 438.553 321.897C437.357 311.764 440.966 301.264 447.322 293.391C454.469 284.539 463.922 280.692 475.026 279.536Z"/>
	<path fill="#EFEAEA" transform="scale(0.666667 0.666667)" d="M465.713 306.51C467.748 306.2 469.825 306.295 471.761 307.052C475.146 308.374 477.63 311.006 478.971 314.371C479.833 316.535 479.656 318.762 478.74 320.874C477.285 324.229 474.373 326.032 471.098 327.304C468.963 327.8 466.914 327.834 464.811 327.119C461.823 326.104 459.52 323.422 458.183 320.663C457.087 318.403 457.248 314.949 458.185 312.662C459.576 309.27 462.514 307.753 465.713 306.51Z"/>
</svg>
